# File created by Blade
# Date/Time:  Wed Jan 21 17:47:32 2015
# Frame Rate: 120.000 fps
#------------------------------------------------------
:FULLY-SPECIFIED
:DEGREES
1660
root 19.793514 35.583800 -25.479933 -186.729345 -7.741344 -181.469465
Spine 4.863590 7.892848 -12.355252
Head 14.337744 -15.670108 14.047774
LeftShoulder 2.759356 -19.885499 1.914453
LeftArm 54.011515 68.068191 -38.911930
LeftForeArm 12.411072 -0.000000 51.389316
LeftHand 1.258427 -0.000000 6.776637
LeftHandThumb1 -26.253704 0.000000 33.147579
RightShoulder 0.009412 -1.755202 10.017135
RightArm 55.305332 -27.632318 47.962523
RightForeArm -26.752149 -0.000000 48.269761
RightHand -0.936233 -0.000000 3.705291
RightHandThumb1 -24.326973 -0.000000 -32.862282
LeftUpLeg -4.101571 -5.976357 -2.624218
LeftLeg 10.169244 -0.000000 -0.000000
LeftFoot -20.460833 4.733666 -15.898888
LeftToeBase 19.014511 -0.000000 -0.000000
RightUpLeg 9.666689 -18.712321 -7.832236
RightLeg 12.671426 -0.000000 -0.000000
RightFoot -30.869315 -28.100337 22.781408
RightToeBase 14.641013 -0.000000 -0.000000
1661
root 19.844956 35.556171 -25.431809 -186.740313 -8.436057 -181.590655
Spine 4.612695 8.117786 -12.463272
Head 14.266192 -15.596388 13.620379
LeftShoulder 2.649701 -19.908835 1.801218
LeftArm 53.630844 67.751846 -39.355659
LeftForeArm 13.094332 -0.000000 51.831133
LeftHand 1.477884 -0.000000 6.894648
LeftHandThumb1 -26.253704 0.000000 33.147579
RightShoulder 0.181718 -1.486129 9.824114
RightArm 55.682287 -27.892427 48.164966
RightForeArm -26.530810 -0.000000 48.492590
RightHand -0.095893 -0.000000 4.004987
RightHandThumb1 -24.326973 -0.000000 -32.862282
LeftUpLeg -4.403602 -6.194890 -2.738718
LeftLeg 10.539931 -0.000000 -0.000000
LeftFoot -20.509961 4.282872 -15.816960
LeftToeBase 19.027511 -0.000000 -0.000000
RightUpLeg 9.680903 -19.261523 -7.902749
RightLeg 12.509663 -0.000000 -0.000000
RightFoot -31.251273 -28.449824 22.554285
RightToeBase 14.608243 -0.000000 -0.000000
1662
root 19.889673 35.528794 -25.377627 -186.730560 -9.090585 -181.788894
Spine 4.350956 8.410972 -12.649987
Head 14.169212 -15.686718 13.171922
LeftShoulder 2.699247 -20.126465 1.648347
LeftArm 52.898023 67.661710 -40.100807
LeftForeArm 13.350039 -0.000000 52.310829
LeftHand 1.293650 -0.000000 7.001368
LeftHandThumb1 -26.253704 0.000000 33.147579
RightShoulder 0.372877 -1.370994 9.635353
RightArm 56.018111 -28.023252 48.398923
RightForeArm -26.705662 -0.000000 48.767152
RightHand -0.053862 -0.000000 3.733467
RightHandThumb1 -24.326973 -0.000000 -32.862282
LeftUpLeg -4.646776 -6.526205 -2.936183
LeftLeg 10.773707 -0.000000 -0.000000
LeftFoot -20.540461 3.917811 -15.832660
LeftToeBase 18.974834 -0.000000 -0.000000
RightUpLeg 9.639009 -19.703867 -8.052836
RightLeg 12.434974 -0.000000 -0.000000
RightFoot -31.578613 -28.797503 22.078094
RightToeBase 15.168884 -0.000000 -0.000000
1663
root 19.937746 35.502723 -25.326934 -186.710246 -9.632682 -181.994719
Spine 4.063332 8.818290 -12.828953
Head 14.100049 -15.650473 12.693982
LeftShoulder 2.613277 -20.153717 1.498134
LeftArm 52.667920 67.467754 -40.302128
LeftForeArm 13.494597 0.000000 52.773850
LeftHand 1.470506 0.000000 7.737378
LeftHandThumb1 -26.253704 0.000000 33.147579
RightShoulder 0.453756 -1.322771 9.447984
RightArm 56.484607 -28.177737 48.578536
RightForeArm -26.754984 -0.000000 48.983927
RightHand -0.207368 -0.000000 3.551167
RightHandThumb1 -24.326973 -0.000000 -32.862282
LeftUpLeg -4.829121 -6.841322 -3.124198
LeftLeg 10.904459 -0.000000 -0.000000
LeftFoot -20.580280 3.624469 -15.830509
LeftToeBase 18.846815 -0.000000 -0.000000
RightUpLeg 9.533361 -19.879480 -8.160222
RightLeg 12.519843 -0.000000 -0.000000
RightFoot -31.686426 -29.221545 21.275228
RightToeBase 15.530672 -0.000000 -0.000000
1664
root 19.985956 35.473016 -25.254629 -186.587885 -10.206316 -182.167808
Spine 3.733667 9.122731 -12.926457
Head 14.014574 -15.747010 12.108826
LeftShoulder 2.494318 -20.093610 1.303832
LeftArm 52.665838 67.207606 -40.291201
LeftForeArm 13.557060 0.000000 53.217583
LeftHand 1.745637 -0.000000 8.066206
LeftHandThumb1 -26.253704 0.000000 33.147579
RightShoulder 0.657843 -1.194711 9.208576
RightArm 56.686083 -28.264528 49.087056
RightForeArm -27.084373 -0.000000 49.199549
RightHand -0.016540 -0.000000 3.801762
RightHandThumb1 -24.326973 -0.000000 -32.862282
LeftUpLeg -5.180638 -7.219519 -3.267710
LeftLeg 11.095143 -0.000000 -0.000000
LeftFoot -20.640528 3.279262 -15.854781
LeftToeBase 18.734997 -0.000000 -0.000000
RightUpLeg 9.197822 -19.914299 -8.156669
RightLeg 12.951493 -0.000000 -0.000000
RightFoot -31.913658 -29.744612 20.598228
RightToeBase 15.790341 -0.000000 -0.000000
1665
root 20.041308 35.450317 -25.187587 -186.610407 -10.747933 -182.264643
Spine 3.622440 9.423016 -12.921033
Head 13.811356 -15.653717 11.551570
LeftShoulder 2.380958 -20.333354 1.121780
LeftArm 52.082892 67.186120 -40.841668
LeftForeArm 14.038685 -0.000000 53.583025
LeftHand 1.751673 -0.000000 8.742900
LeftHandThumb1 -26.253704 0.000000 33.147579
RightShoulder 0.852645 -1.174302 9.039321
RightArm 57.151328 -28.462158 48.958127
RightForeArm -27.121731 -0.000000 49.640508
RightHand -0.184426 0.000000 3.537062
RightHandThumb1 -24.326973 -0.000000 -32.862282
LeftUpLeg -5.397373 -7.403814 -3.331541
LeftLeg 11.297478 -0.000000 -0.000000
LeftFoot -20.655989 2.750612 -15.895200
LeftToeBase 18.682704 -0.000000 -0.000000
RightUpLeg 8.984018 -19.883407 -8.099267
RightLeg 13.525817 -0.000000 -0.000000
RightFoot -32.474089 -30.131936 20.522031
RightToeBase 15.710421 -0.000000 -0.000000
1666
root 20.099495 35.432852 -25.133165 -186.685237 -11.194726 -182.355596
Spine 3.526230 9.847854 -12.885976
Head 13.618390 -15.688748 11.008050
LeftShoulder 2.309123 -20.464799 0.778042
LeftArm 51.783620 67.118834 -40.963823
LeftForeArm 14.004890 -0.000000 53.988341
LeftHand 2.318716 -0.000000 9.240719
LeftHandThumb1 -26.253704 0.000000 33.147579
RightShoulder 1.030533 -1.253595 8.872083
RightArm 57.621017 -28.587340 48.885011
RightForeArm -27.008434 -0.000000 50.044994
RightHand -0.200823 -0.000000 3.470071
RightHandThumb1 -24.326973 -0.000000 -32.862282
LeftUpLeg -5.458365 -7.466671 -3.371479
LeftLeg 11.354199 -0.000000 -0.000000
LeftFoot -20.701802 2.164580 -15.907300
LeftToeBase 18.743936 -0.000000 -0.000000
RightUpLeg 8.867612 -19.941753 -8.078802
RightLeg 13.982093 -0.000000 -0.000000
RightFoot -33.015005 -30.421893 20.534746
RightToeBase 15.525721 -0.000000 -0.000000
1667
root 20.146507 35.410434 -25.050892 -186.720662 -11.892084 -182.326244
Spine 3.529259 9.893067 -12.634583
Head 13.374870 -15.647214 10.327798
LeftShoulder 2.139656 -20.597442 0.428568
LeftArm 51.276312 66.967312 -41.376068
LeftForeArm 13.980788 -0.000000 54.490581
LeftHand 2.097362 -0.000000 8.928092
LeftHandThumb1 -26.253704 0.000000 33.147579
RightShoulder 1.269970 -1.232151 8.551182
RightArm 58.044615 -28.846526 48.715972
RightForeArm -27.061965 -0.000000 50.463505
RightHand -0.242492 -0.000000 3.219514
RightHandThumb1 -24.326973 -0.000000 -32.862282
LeftUpLeg -5.717954 -7.856750 -3.347594
LeftLeg 11.580007 -0.000000 -0.000000
LeftFoot -20.851680 1.704160 -15.874093
LeftToeBase 18.669561 -0.000000 -0.000000
RightUpLeg 8.729745 -20.388812 -8.020749
RightLeg 14.347172 -0.000000 -0.000000
RightFoot -33.300763 -30.642919 20.377610
RightToeBase 15.457166 -0.000000 -0.000000
1668
root 20.199244 35.394229 -24.979546 -186.822361 -12.493874 -182.314205
Spine 3.595645 10.115463 -12.419709
Head 13.096902 -15.752412 9.703915
LeftShoulder 1.991234 -20.658920 0.154388
LeftArm 51.408128 66.914597 -41.253918
LeftForeArm 13.823959 -0.000000 54.772838
LeftHand 1.933691 -0.000000 9.365404
LeftHandThumb1 -26.253704 0.000000 33.147579
RightShoulder 1.402460 -1.264689 8.344460
RightArm 58.576887 -29.085039 48.273444
RightForeArm -26.983624 -0.000000 50.970027
RightHand -0.349523 -0.000000 3.189133
RightHandThumb1 -24.326973 -0.000000 -32.862282
LeftUpLeg -5.834883 -8.091576 -3.316594
LeftLeg 11.697844 -0.000000 -0.000000
LeftFoot -21.007345 1.229296 -15.872714
LeftToeBase 18.602808 -0.000000 -0.000000
RightUpLeg 8.755886 -20.548357 -7.942937
RightLeg 14.494049 -0.000000 -0.000000
RightFoot -33.499932 -31.042349 20.130413
RightToeBase 15.249009 -0.000000 -0.000000
1669
root 20.263071 35.384881 -24.919155 -187.041186 -13.024521 -182.267088
Spine 3.786349 10.373981 -12.186277
Head 12.808215 -15.810135 9.141264
LeftShoulder 1.840351 -20.682890 -0.060769
LeftArm 51.355758 66.905591 -41.256360
LeftForeArm 14.367887 -0.000000 54.938565
LeftHand 1.918698 -0.000000 10.173488
LeftHandThumb1 -26.253704 0.000000 33.147579
RightShoulder 1.656165 -1.236195 8.128158
RightArm 58.773299 -29.312086 48.343611
RightForeArm -27.142380 -0.000000 51.434849
RightHand -0.282377 -0.000000 3.059971
RightHandThumb1 -24.326973 -0.000000 -32.862282
LeftUpLeg -5.832766 -8.023504 -3.238014
LeftLeg 11.836015 -0.000000 -0.000000
LeftFoot -21.222900 0.601051 -15.857760
LeftToeBase 18.656303 -0.000000 -0.000000
RightUpLeg 8.991492 -20.533674 -7.827636
RightLeg 14.456500 -0.000000 -0.000000
RightFoot -33.602318 -31.507799 19.827272
RightToeBase 14.944098 -0.000000 -0.000000
1670
root 20.330626 35.377066 -24.854763 -187.245403 -13.623581 -182.163108
Spine 4.024686 10.550792 -11.886487
Head 12.397856 -15.899018 8.626582
LeftShoulder 1.664967 -20.650209 -0.338190
LeftArm 51.543563 66.882975 -41.013255
LeftForeArm 14.801203 -0.000000 55.090757
LeftHand 1.889635 -0.000000 10.879543
LeftHandThumb1 -26.253704 0.000000 33.147579
RightShoulder 1.823050 -1.238930 7.854192
RightArm 59.029310 -29.566849 48.437593
RightForeArm -27.602556 -0.000000 51.856175
RightHand -0.143061 -0.000000 3.174569
RightHandThumb1 -24.326973 -0.000000 -32.862282
LeftUpLeg -5.931261 -7.979279 -3.110416
LeftLeg 12.088052 -0.000000 -0.000000
LeftFoot -21.510376 0.129600 -15.748238
LeftToeBase 18.602671 -0.000000 -0.000000
RightUpLeg 9.287726 -20.630784 -7.664957
RightLeg 14.279291 -0.000000 -0.000000
RightFoot -33.640343 -31.873580 19.510350
RightToeBase 14.791789 -0.000000 -0.000000
1671
root 20.400776 35.369293 -24.788640 -187.389376 -14.237068 -181.998948
Spine 4.172728 10.703550 -11.530294
Head 12.016214 -16.111608 8.079294
LeftShoulder 1.592192 -20.550254 -0.655422
LeftArm 51.309820 66.810319 -41.166785
LeftForeArm 15.111396 -0.000000 55.359197
LeftHand 1.514721 0.000000 11.265568
LeftHandThumb1 -26.253704 0.000000 33.147579
RightShoulder 1.926063 -1.299023 7.592979
RightArm 59.328073 -29.896371 48.293170
RightForeArm -27.707155 -0.000000 52.367642
RightHand 0.003894 -0.000000 3.218947
RightHandThumb1 -24.326973 -0.000000 -32.862282
LeftUpLeg -6.189453 -7.743104 -2.908601
LeftLeg 12.475900 -0.000000 -0.000000
LeftFoot -21.952848 -0.383636 -15.672047
LeftToeBase 18.708482 -0.000000 -0.000000
RightUpLeg 9.553851 -20.786187 -7.417999
RightLeg 14.010834 -0.000000 -0.000000
RightFoot -33.666382 -32.153499 19.267725
RightToeBase 14.543593 -0.000000 -0.000000
